<svg id="visual" viewBox="0 0 900 600" width="900" height="600" xmlns="http://www.w3.org/2000/svg" xmlns:xlink="http://www.w3.org/1999/xlink" version="1.1"><rect x="0" y="0" width="900" height="600" fill="#001220"></rect><path d="M0 446L21.5 437.5C43 429 86 412 128.8 406.3C171.7 400.7 214.3 406.3 257.2 405.3C300 404.3 343 396.7 385.8 390.5C428.7 384.3 471.3 379.7 514.2 378.5C557 377.3 600 379.7 642.8 389.8C685.7 400 728.3 418 771.2 426.3C814 434.7 857 433.3 878.5 432.7L900 432L900 601L878.5 601C857 601 814 601 771.2 601C728.3 601 685.7 601 642.8 601C600 601 557 601 514.2 601C471.3 601 428.7 601 385.8 601C343 601 300 601 257.2 601C214.3 601 171.7 601 128.8 601C86 601 43 601 21.5 601L0 601Z" fill="#fa7268"></path><path d="M0 462L21.5 463.3C43 464.7 86 467.3 128.8 463.5C171.7 459.7 214.3 449.3 257.2 449.7C300 450 343 461 385.8 466.5C428.7 472 471.3 472 514.2 459.3C557 446.7 600 421.3 642.8 413.5C685.7 405.7 728.3 415.3 771.2 420.5C814 425.7 857 426.3 878.5 426.7L900 427L900 601L878.5 601C857 601 814 601 771.2 601C728.3 601 685.7 601 642.8 601C600 601 557 601 514.2 601C471.3 601 428.7 601 385.8 601C343 601 300 601 257.2 601C214.3 601 171.7 601 128.8 601C86 601 43 601 21.5 601L0 601Z" fill="#ef5f67"></path><path d="M0 480L21.5 481.2C43 482.3 86 484.7 128.8 479C171.7 473.3 214.3 459.7 257.2 453.7C300 447.7 343 449.3 385.8 448.7C428.7 448 471.3 445 514.2 447.5C557 450 600 458 642.8 464.8C685.7 471.7 728.3 477.3 771.2 480.3C814 483.3 857 483.7 878.5 483.8L900 484L900 601L878.5 601C857 601 814 601 771.2 601C728.3 601 685.7 601 642.8 601C600 601 557 601 514.2 601C471.3 601 428.7 601 385.8 601C343 601 300 601 257.2 601C214.3 601 171.7 601 128.8 601C86 601 43 601 21.5 601L0 601Z" fill="#e34c67"></path><path d="M0 515L21.5 516.5C43 518 86 521 128.8 516C171.7 511 214.3 498 257.2 497.3C300 496.7 343 508.3 385.8 510.2C428.7 512 471.3 504 514.2 504.3C557 504.7 600 513.3 642.8 515.2C685.7 517 728.3 512 771.2 510.2C814 508.3 857 509.7 878.5 510.3L900 511L900 601L878.5 601C857 601 814 601 771.2 601C728.3 601 685.7 601 642.8 601C600 601 557 601 514.2 601C471.3 601 428.7 601 385.8 601C343 601 300 601 257.2 601C214.3 601 171.7 601 128.8 601C86 601 43 601 21.5 601L0 601Z" fill="#d53867"></path><path d="M0 539L21.5 541.8C43 544.7 86 550.3 128.8 551.7C171.7 553 214.3 550 257.2 545.5C300 541 343 535 385.8 535.7C428.7 536.3 471.3 543.7 514.2 551.2C557 558.7 600 566.3 642.8 566.3C685.7 566.3 728.3 558.7 771.2 553.5C814 548.3 857 545.7 878.5 544.3L900 543L900 601L878.5 601C857 601 814 601 771.2 601C728.3 601 685.7 601 642.8 601C600 601 557 601 514.2 601C471.3 601 428.7 601 385.8 601C343 601 300 601 257.2 601C214.3 601 171.7 601 128.8 601C86 601 43 601 21.5 601L0 601Z" fill="#c62368"></path></svg>